<?xml version="1.0" encoding="UTF-8"?><svg id="a" xmlns="http://www.w3.org/2000/svg" viewBox="0 0 351.51 348.15"><path d="M18.67,0c10.23,10.35,19.99,20.31,29.86,30.17,54.69,54.68,109.41,109.33,164.12,164,39.36,39.32,78.72,78.64,118.01,118.03,1.29,1.3,2.43,3.3,2.6,5.07,.52,5.4,1.16,10.92,.59,16.26-.91,8.5-6.6,13.91-15.04,14.51-5.41,.38-10.92-.25-16.35-.8-1.36-.14-2.85-1.47-3.82-2.64-25.74-30.97-51.41-62-77.11-93.01-22.12-26.69-44.24-53.37-66.42-80.01-.87-1.05-2.26-2.12-3.53-2.31-29.11-4.19-53.54-18.19-75.79-36.45-22.03-18.07-40.3-39.35-52.97-65.05-7.52-15.25-12.7-31.13-10.97-48.51,.66-6.65,2.7-12.85,6.83-19.26Z"/><path d="M184.31,145.2c9.48-9.05,18.72-17.97,28.1-26.75,1.91-1.78,2.13-3.13,1.22-5.65-1.64-4.51-3.11-9.24-3.54-13.99-.55-6.08,1.99-11.52,6.31-15.85,27.14-27.2,54.34-54.34,81.52-81.5,.17-.17,.42-.25,.63-.38,3.53,3.8,7.07,7.6,10.65,11.45-16.94,16.81-34.51,34.24-52.03,51.62,3.77,3.84,6.87,7.01,10.03,10.24,17.52-17.55,34.94-35.02,52.28-52.4,3.93,4.03,7.47,7.66,10.94,11.23-17.2,17.04-34.78,34.46-52.43,51.96,4.03,3.87,7.23,6.94,10.7,10.27,17.19-17.38,34.53-34.91,51.83-52.41,3.92,4.07,7.27,7.54,10.99,11.4-7.24,7.13-14.9,14.6-22.48,22.16-18.9,18.85-37.89,37.62-56.6,56.65-8.56,8.71-18.23,10.48-29.38,6.46-1.64-.59-3.36-1.05-4.85-1.91-2.08-1.19-3.32-.49-4.79,1.09-7.57,8.12-15.25,16.14-22.87,24.21-1.36,1.44-2.61,2.97-3.75,4.28-7.68-7.58-14.94-14.74-22.48-22.19Z"/><path d="M140.61,183.13c7.4,8.92,14.54,17.53,21.9,26.4-5.77,6.11-11.47,12.17-17.2,18.21-36.02,38.02-72.07,76-108,114.1-3.25,3.44-6.61,5.87-11.44,5.94-1.99,.03-3.97,.38-5.96,.37-13.28-.02-20.36-7.28-19.89-20.56,.12-3.34,.69-6.68,1.32-9.97,.23-1.23,1-2.55,1.91-3.42,37.23-35.59,74.5-71.13,111.77-106.68,8.39-8,16.78-16,25.59-24.39Z"/></svg>