<svg xmlns="http://www.w3.org/2000/svg" width="27.465" height="27.299" viewBox="0 0 27.465 27.299">
  <g id="Group_161" data-name="Group 161" transform="translate(0 0)">
    <ellipse id="Ellipse_3" data-name="Ellipse 3" cx="13.27" cy="13.29" rx="13.27" ry="13.29" transform="translate(0.254 0.719)" fill="#fff"/>
    <path id="Icon_awesome-facebook" data-name="Icon awesome-facebook" d="M28.028,14.3A13.733,13.733,0,1,0,12.149,27.861v-9.6H8.661V14.3h3.488V11.269c0-3.441,2.049-5.342,5.187-5.342A21.134,21.134,0,0,1,20.41,6.2V9.573H18.678a1.985,1.985,0,0,0-2.238,2.145V14.3h3.809l-.609,3.97h-3.2v9.6A13.737,13.737,0,0,0,28.028,14.3Z" transform="translate(-0.563 -0.563)" fill="#f3a2a2"/>
  </g>
</svg>
