<svg xmlns="http://www.w3.org/2000/svg" width="29.438" height="29.438" viewBox="0 0 29.438 29.438">
  <path id="Icon_awesome-user-circle" data-name="Icon awesome-user-circle" d="M14.719.563A14.719,14.719,0,1,0,29.438,15.281,14.716,14.716,0,0,0,14.719.563Zm0,5.7A5.223,5.223,0,1,1,9.5,11.483,5.223,5.223,0,0,1,14.719,6.26Zm0,20.416a11.373,11.373,0,0,1-8.695-4.048A6.617,6.617,0,0,1,11.87,19.08a1.452,1.452,0,0,1,.421.065,7.858,7.858,0,0,0,2.427.41,7.828,7.828,0,0,0,2.427-.41,1.452,1.452,0,0,1,.421-.065,6.617,6.617,0,0,1,5.846,3.549A11.373,11.373,0,0,1,14.719,26.676Z" transform="translate(0 -0.563)" fill="#ed7575"/>
</svg>
