<svg xmlns="http://www.w3.org/2000/svg" width="19.518" height="19.514" viewBox="0 0 19.518 19.514">
  <g id="Group_62" data-name="Group 62" transform="translate(0 0)">
    <path id="Icon_awesome-instagram" data-name="Icon awesome-instagram" d="M9.756,6.992a5,5,0,1,0,5,5A5,5,0,0,0,9.756,6.992Zm0,8.256a3.253,3.253,0,1,1,3.253-3.253,3.259,3.259,0,0,1-3.253,3.253Zm6.375-8.46A1.167,1.167,0,1,1,14.964,5.62,1.164,1.164,0,0,1,16.131,6.787Zm3.314,1.184a5.775,5.775,0,0,0-1.576-4.089,5.813,5.813,0,0,0-4.089-1.576c-1.611-.091-6.44-.091-8.051,0A5.8,5.8,0,0,0,1.64,3.878,5.794,5.794,0,0,0,.063,7.967c-.091,1.611-.091,6.44,0,8.051A5.775,5.775,0,0,0,1.64,20.107a5.82,5.82,0,0,0,4.089,1.576c1.611.091,6.44.091,8.051,0a5.775,5.775,0,0,0,4.089-1.576,5.813,5.813,0,0,0,1.576-4.089c.091-1.611.091-6.436,0-8.047Zm-2.081,9.775A3.293,3.293,0,0,1,15.508,19.6c-1.285.509-4.333.392-5.752.392S5.284,20.107,4,19.6a3.293,3.293,0,0,1-1.855-1.855c-.509-1.285-.392-4.333-.392-5.752s-.113-4.472.392-5.752A3.293,3.293,0,0,1,4,4.388C5.288,3.878,8.337,4,9.756,4s4.472-.113,5.752.392a3.293,3.293,0,0,1,1.855,1.855c.509,1.285.392,4.333.392,5.752S17.872,16.467,17.363,17.747Z" transform="translate(0.005 -2.238)" fill="#f88787"/>
  </g>
</svg>
