<svg xmlns="http://www.w3.org/2000/svg" width="32" height="32" viewBox="0 0 32 32">
  <g id="Group_45" data-name="Group 45" transform="translate(-1767 -15.961)">
    <g id="Ellipse_1" data-name="Ellipse 1" transform="translate(1767 15.961)" fill="#f3a2a2" stroke="#f3a2a2" stroke-width="1.5">
      <circle cx="16" cy="16" r="16" stroke="none"/>
      <circle cx="16" cy="16" r="15.25" fill="none"/>
    </g>
    <path id="Icon_awesome-instagram" data-name="Icon awesome-instagram" d="M8.654,6.455a4.438,4.438,0,1,0,4.438,4.438A4.431,4.431,0,0,0,8.654,6.455Zm0,7.324a2.885,2.885,0,1,1,2.885-2.885A2.891,2.891,0,0,1,8.654,13.778Zm5.655-7.505a1.035,1.035,0,1,1-1.035-1.035A1.033,1.033,0,0,1,14.309,6.273Zm2.939,1.051A5.123,5.123,0,0,0,15.85,3.7a5.157,5.157,0,0,0-3.627-1.4c-1.429-.081-5.713-.081-7.142,0A5.149,5.149,0,0,0,1.454,3.693,5.14,5.14,0,0,0,.056,7.32c-.081,1.429-.081,5.713,0,7.142a5.123,5.123,0,0,0,1.4,3.627,5.163,5.163,0,0,0,3.627,1.4c1.429.081,5.713.081,7.142,0a5.123,5.123,0,0,0,3.627-1.4,5.157,5.157,0,0,0,1.4-3.627c.081-1.429.081-5.709,0-7.138ZM15.4,16a2.921,2.921,0,0,1-1.645,1.645c-1.139.452-3.843.348-5.1.348s-3.967.1-5.1-.348A2.921,2.921,0,0,1,1.906,16c-.452-1.139-.348-3.843-.348-5.1s-.1-3.967.348-5.1A2.921,2.921,0,0,1,3.551,4.145c1.139-.452,3.843-.348,5.1-.348s3.967-.1,5.1.348A2.921,2.921,0,0,1,15.4,5.79c.452,1.139.348,3.843.348,5.1S15.854,14.86,15.4,16Z" transform="translate(1774.348 21.068)" fill="#fff"/>
  </g>
</svg>
