<svg xmlns="http://www.w3.org/2000/svg" width="32" height="32" viewBox="0 0 32 32">
  <g id="Group_49" data-name="Group 49" transform="translate(-1828 -17)">
    <g id="Group_46" data-name="Group 46" transform="translate(61 1.039)">
      <g id="Ellipse_1" data-name="Ellipse 1" transform="translate(1767 15.961)" fill="#f3a2a2" stroke="#f3a2a2" stroke-width="1.5">
        <circle cx="16" cy="16" r="16" stroke="none"/>
        <circle cx="16" cy="16" r="15.25" fill="none"/>
      </g>
    </g>
    <path id="Icon_feather-twitter" data-name="Icon feather-twitter" d="M19.112,4.493A8.726,8.726,0,0,1,16.6,5.718a3.586,3.586,0,0,0-6.292,2.4v.8A8.534,8.534,0,0,1,3.1,5.293S-.1,12.5,7.1,15.7a9.318,9.318,0,0,1-5.6,1.6c7.2,4,16.011,0,16.011-9.206a3.6,3.6,0,0,0-.064-.664,6.18,6.18,0,0,0,1.665-2.938Z" transform="translate(1833.694 21.333)" fill="none" stroke="#fff" stroke-linecap="round" stroke-linejoin="round" stroke-width="1.5"/>
  </g>
</svg>
